<svg xmlns="http://www.w3.org/2000/svg" viewBox="0 0 32 32" fill="none">
  <defs>
    <linearGradient id="leafGradient" x1="0%" y1="0%" x2="100%" y2="100%">
      <stop offset="0%" style="stop-color:#22c55e;stop-opacity:1" />
      <stop offset="100%" style="stop-color:#16a34a;stop-opacity:1" />
    </linearGradient>
  </defs>
  
  <!-- Background circle -->
  <circle cx="16" cy="16" r="15" fill="url(#leafGradient)" stroke="#15803d" stroke-width="1"/>
  
  <!-- Leaf shape -->
  <path d="M8 20c0-6 3-10 8-10s8 4 8 10c0 3-2 6-5 7-1 0-2-1-3-2-1 1-2 2-3 2-3-1-5-4-5-7z" 
        fill="#ffffff" opacity="0.9"/>
  
  <!-- Leaf vein -->
  <path d="M16 10v10" stroke="#22c55e" stroke-width="1.5" stroke-linecap="round"/>
  <path d="M16 13c-2 1-3 2-3 4" stroke="#22c55e" stroke-width="1" stroke-linecap="round" fill="none"/>
  <path d="M16 13c2 1 3 2 3 4" stroke="#22c55e" stroke-width="1" stroke-linecap="round" fill="none"/>
</svg>
